<?xml version="1.0" standalone="no"?>
<!DOCTYPE svg PUBLIC "-//W3C//DTD SVG 20010904//EN"
 "http://www.w3.org/TR/2001/REC-SVG-20010904/DTD/svg10.dtd">
<svg version="1.0" xmlns="http://www.w3.org/2000/svg"
 width="300.000000pt" height="109.000000pt" viewBox="0 0 300.000000 109.000000"
 preserveAspectRatio="xMidYMid meet">
<metadata>
Created by potrace 1.10, written by Peter Selinger 2001-2011
</metadata>
<g transform="translate(0.000000,109.000000) scale(0.100000,-0.100000)"
fill="#000000" stroke="none">
<path d="M1637 625 c6 -66 -2 -80 -27 -50 -14 17 -62 20 -91 5 -62 -34 -65
-190 -4 -214 34 -13 79 -6 102 16 l23 21 0 -21 c0 -15 6 -22 20 -22 19 0 20 7
20 165 l0 165 -25 0 c-24 0 -24 -1 -18 -65z m-20 -91 c22 -22 25 -32 20 -67
-6 -42 -35 -77 -63 -77 -29 0 -54 39 -54 83 0 47 6 58 35 75 28 16 33 15 62
-14z"/>
<path d="M255 672 c-3 -3 -5 -74 -5 -159 l0 -153 26 0 27 0 -5 135 c-2 73 -1
132 4 129 4 -3 8 -10 8 -15 0 -6 21 -64 46 -130 51 -129 71 -148 92 -86 6 17
29 79 51 137 l41 105 -1 -135 c-1 -135 -1 -135 22 -138 l24 -3 -2 158 -1 158
-32 0 c-31 0 -33 -2 -76 -110 -24 -60 -44 -115 -44 -122 0 -36 -19 -1 -60 109
-44 118 -46 121 -77 123 -18 2 -35 0 -38 -3z"/>
<path d="M1930 517 l0 -160 85 5 c135 9 186 54 186 162 0 59 -12 90 -45 118
-24 20 -51 25 -153 31 l-73 4 0 -160z m160 88 c38 -20 54 -72 37 -123 -13 -41
-45 -62 -94 -62 l-33 0 0 100 0 100 30 0 c17 0 44 -7 60 -15z"/>
<path d="M687 570 c-50 -40 -56 -137 -11 -185 19 -20 33 -25 73 -25 63 0 81 7
81 32 0 15 -4 18 -17 13 -50 -19 -72 -17 -97 8 -14 15 -26 31 -26 37 0 6 31
10 79 10 86 0 81 -5 66 63 -13 65 -93 90 -148 47z m99 -35 c9 -14 15 -27 13
-29 -9 -10 -103 -9 -106 0 -5 15 35 54 57 54 11 0 27 -11 36 -25z"/>
<path d="M893 475 l-2 -115 24 0 c24 0 25 2 25 73 0 85 18 122 56 114 20 -3
24 0 24 19 0 32 -41 33 -63 2 l-16 -23 0 23 c-1 16 -7 22 -23 22 -22 0 -23 -3
-25 -115z"/>
<path d="M1071 569 c-16 -15 -21 -30 -19 -52 2 -25 11 -35 46 -52 62 -31 71
-43 47 -61 -19 -15 -52 -15 -86 0 -13 6 -16 2 -12 -18 5 -24 9 -26 59 -26 60
0 94 23 94 63 0 32 -9 42 -59 69 -54 28 -61 44 -27 59 20 9 32 9 51 1 23 -11
25 -10 25 13 0 23 -4 25 -48 25 -35 0 -54 -6 -71 -21z"/>
<path d="M1274 582 c-11 -7 -29 -52 -21 -52 3 0 18 7 33 15 40 20 60 19 78 -7
20 -29 15 -34 -40 -42 -26 -3 -56 -14 -66 -23 -22 -20 -24 -76 -2 -97 20 -20
78 -21 94 -1 7 8 16 15 21 15 5 0 6 -7 3 -15 -5 -11 1 -15 21 -15 l27 0 -4
100 c-3 85 -6 101 -23 114 -21 16 -102 21 -121 8z m100 -134 c-14 -46 -53 -70
-79 -48 -37 31 -6 68 58 69 25 1 27 -2 21 -21z"/>
<path d="M2279 562 c-54 -49 -48 -160 10 -192 21 -11 100 -14 125 -4 9 3 16
17 16 30 0 21 -2 23 -27 13 -46 -17 -103 8 -103 45 0 3 34 6 76 6 l77 0 -6 42
c-11 86 -103 118 -168 60z m99 -24 c26 -26 14 -43 -30 -42 -31 2 -42 6 -40 15
9 37 46 51 70 27z"/>
<path d="M2465 573 c5 -10 24 -62 43 -115 l34 -98 37 0 36 0 40 107 c22 59 42
111 43 115 2 4 -12 8 -32 8 -38 0 -39 -1 -67 -127 -12 -54 -29 -72 -29 -30 0
12 -8 51 -18 87 -19 64 -19 65 -57 68 -33 3 -37 1 -30 -15z"/>
<path d="M1750 488 c0 -15 10 -18 61 -18 50 0 60 3 57 16 -2 12 -17 16 -60 17
-49 2 -58 -1 -58 -15z"/>
</g>
</svg>
